<svg width="71" height="71" viewBox="0 0 71 71" fill="none" xmlns="http://www.w3.org/2000/svg">
<rect width="71" height="71" rx="14" fill="#FFE8DF"/>
<path d="M47.1253 45.8333H28.0086C26.5618 45.8333 25.8378 45.8333 25.2852 45.5517C24.7992 45.304 24.4042 44.9089 24.1566 44.4229C23.875 43.8702 23.875 43.1468 23.875 41.7V26.4583M47.125 29.0416L39.5743 35.6485C38.67 36.4397 38.2178 36.8354 37.7226 36.9996C37.1385 37.1934 36.5043 37.1722 35.9344 36.9401C35.4513 36.7432 35.0267 36.3185 34.177 35.4688C33.3458 34.6376 32.9302 34.222 32.4563 34.0254C31.8972 33.7935 31.2746 33.7651 30.6968 33.9455C30.207 34.0984 29.7553 34.4747 28.8523 35.2272L23.875 39.375" stroke="#CE5D30" stroke-width="2" stroke-linecap="round" stroke-linejoin="round"/>
</svg>
